Coordinates
version=1
nRows=20
nColumns=38
inDegrees=no

Units are S.I. units (second, meters, Newtons, ...)
If the header above contains a line with 'inDegrees', this indicates whether rotational values are in degrees (yes) or radians (no).

endheader
time	pelvis_tilt	pelvis_list	pelvis_rotation	pelvis_tx	pelvis_ty	pelvis_tz	hip_flexion_r	hip_adduction_r	hip_rotation_r	knee_angle_r	ankle_angle_r	subtalar_angle_r	mtp_angle_r	hip_flexion_l	hip_adduction_l	hip_rotation_l	knee_angle_l	ankle_angle_l	subtalar_angle_l	mtp_angle_l	lumbar_extension	lumbar_bending	lumbar_rotation	arm_flex_r	arm_add_r	arm_rot_r	elbow_flex_r	pro_sup_r	wrist_flex_r	wrist_dev_r	arm_flex_l	arm_add_l	arm_rot_l	elbow_flex_l	pro_sup_l	wrist_flex_l	wrist_dev_l
20	3.08825	1.27218	-1.40607	0.658044	0.388468	1.05192	-0.362226	0.0300334	-0.179035	0.0465173	-0.521894	0	0	-0.364799	-0.148467	-0.386203	0.176863	-0.355183	0	0	-0.466465	0.0862649	-0.102519	0.169112	-0.325065	1.5708	0.327866	0.127494	0	0	-0.0512198	-0.17586	-0.165966	0.298906	1.5708	0	0
20.01	3.08824	1.27308	-1.406	0.658378	0.388819	1.05185	-0.360171	0.0300276	-0.178709	0.0495145	-0.520563	0	0	-0.364255	-0.148702	-0.385728	0.176701	-0.35485	0	0	-0.466793	0.0868817	-0.102998	0.171036	-0.325193	1.5708	0.327296	0.128874	0	0	-0.0513319	-0.176455	-0.165462	0.30046	1.5708	0	0
20.02	3.08852	1.2742	-1.4058	0.658691	0.389179	1.05177	-0.358673	0.030272	-0.178374	0.0506339	-0.519652	0	0	-0.363334	-0.148971	-0.385012	0.176686	-0.354584	0	0	-0.466763	0.0876003	-0.103641	0.172916	-0.325535	1.5708	0.326988	0.130342	0	0	-0.051278	-0.177052	-0.164856	0.301807	1.5708	0	0
20.03	3.08938	1.27542	-1.4055	0.658992	0.389571	1.05169	-0.357315	0.030663	-0.178827	0.0513238	-0.518634	0	0	-0.362171	-0.149357	-0.383998	0.176799	-0.354435	0	0	-0.466689	0.0884494	-0.10445	0.174651	-0.325987	1.5708	0.326778	0.131677	0	0	-0.0510322	-0.177632	-0.164269	0.303174	1.5708	0	0
20.04	3.09055	1.27657	-1.40507	0.65931	0.390014	1.05162	-0.35603	0.0310924	-0.179327	0.0522983	-0.517387	0	0	-0.361044	-0.149895	-0.383111	0.176917	-0.354362	0	0	-0.466729	0.0894824	-0.105108	0.176176	-0.326444	1.5708	0.326383	0.132747	0	0	-0.0505829	-0.178182	-0.163621	0.304657	1.5708	0	0
20.05	3.09168	1.27789	-1.40564	0.659673	0.390329	1.05154	-0.354552	0.0312008	-0.177737	0.0531207	-0.515773	0	0	-0.359779	-0.149918	-0.383037	0.177048	-0.354275	0	0	-0.467113	0.0903385	-0.104825	0.178286	-0.32711	1.5708	0.325865	0.133596	0	0	-0.0499454	-0.178492	-0.162828	0.306493	1.5708	0	0
20.06	3.09333	1.27916	-1.40619	0.660012	0.390644	1.05147	-0.353106	0.0313552	-0.176563	0.0541881	-0.513897	0	0	-0.358336	-0.150052	-0.382642	0.177387	-0.354228	0	0	-0.467481	0.0913317	-0.104868	0.180401	-0.327831	1.5708	0.325357	0.134151	0	0	-0.0493491	-0.178794	-0.161812	0.308478	1.5708	0	0
20.07	3.09443	1.28033	-1.40668	0.66035	0.390851	1.05142	-0.350961	0.031323	-0.17464	0.0565603	-0.51186	0	0	-0.356906	-0.150133	-0.382615	0.177828	-0.354114	0	0	-0.46839	0.0924806	-0.104361	0.18302	-0.328834	1.5708	0.324983	0.134544	0	0	-0.0487032	-0.178937	-0.16056	0.310968	1.5708	0	0
20.08	3.09569	1.28172	-1.40695	0.660683	0.391075	1.05134	-0.348459	0.0312685	-0.173587	0.059269	-0.509732	0	0	-0.355057	-0.150344	-0.382228	0.178521	-0.353883	0	0	-0.469125	0.0938518	-0.104103	0.185627	-0.329845	1.5708	0.324567	0.134674	0	0	-0.0483168	-0.179186	-0.158721	0.313974	1.5708	0	0
20.09	3.09758	1.2836	-1.40741	0.660996	0.391296	1.05123	-0.34574	0.0311812	-0.173135	0.0613942	-0.507505	0	0	-0.352438	-0.150482	-0.381535	0.179529	-0.353528	0	0	-0.46954	0.0953413	-0.104101	0.188273	-0.330876	1.5708	0.324046	0.134693	0	0	-0.0480905	-0.17937	-0.156528	0.317524	1.5708	0	0
20.1	3.09911	1.28608	-1.40714	0.661312	0.391481	1.05112	-0.342378	0.0313045	-0.172844	0.0633669	-0.505015	0	0	-0.348884	-0.150784	-0.38039	0.180837	-0.353024	0	0	-0.469665	0.0972006	-0.104297	0.191158	-0.331845	1.5708	0.323216	0.134699	0	0	-0.0480436	-0.179505	-0.153948	0.321686	1.5708	0	0
20.11	3.09979	1.28878	-1.40575	0.661677	0.391667	1.051	-0.338181	0.031682	-0.172836	0.0664521	-0.502071	0	0	-0.344907	-0.151529	-0.378966	0.182329	-0.352441	0	0	-0.469549	0.0994855	-0.104438	0.194076	-0.332795	1.5708	0.322321	0.134561	0	0	-0.0483319	-0.179707	-0.151011	0.326626	1.5708	0	0
20.12	3.09986	1.29167	-1.40438	0.662052	0.391756	1.05087	-0.333068	0.0318179	-0.171979	0.0708027	-0.49873	0	0	-0.340738	-0.152164	-0.377995	0.183839	-0.351815	0	0	-0.46958	0.101976	-0.104008	0.197542	-0.33425	1.5708	0.321957	0.134321	0	0	-0.0488942	-0.179718	-0.147817	0.332472	1.5708	0	0
20.13	3.09966	1.29469	-1.40316	0.662441	0.391761	1.05073	-0.327286	0.0317255	-0.170558	0.0759377	-0.495336	0	0	-0.336418	-0.152737	-0.377473	0.185407	-0.351137	0	0	-0.469776	0.104697	-0.103302	0.201486	-0.335812	1.5708	0.321483	0.134041	0	0	-0.0497795	-0.179592	-0.144257	0.339083	1.5708	0	0
20.14	3.0996	1.2979	-1.4021	0.662856	0.391711	1.05057	-0.321147	0.0315319	-0.169254	0.0813061	-0.491892	0	0	-0.331786	-0.153307	-0.377152	0.18716	-0.350423	0	0	-0.470055	0.107576	-0.102431	0.205655	-0.337303	1.5708	0.320667	0.133929	0	0	-0.0509323	-0.179428	-0.140327	0.346427	1.5708	0	0
20.15	3.09992	1.30132	-1.40131	0.663298	0.391617	1.05041	-0.314852	0.0312743	-0.168131	0.0867179	-0.488289	0	0	-0.326734	-0.153899	-0.376813	0.1892	-0.349743	0	0	-0.470336	0.110576	-0.101619	0.210054	-0.338867	1.5708	0.319899	0.133917	0	0	-0.0523677	-0.179317	-0.135849	0.354285	1.5708	0	0
20.16	3.10049	1.30502	-1.40072	0.663731	0.391467	1.05022	-0.308232	0.0308187	-0.166601	0.0921058	-0.484675	0	0	-0.321159	-0.154458	-0.376502	0.191609	-0.349	0	0	-0.470515	0.11369	-0.101006	0.214754	-0.340428	1.5708	0.319065	0.133807	0	0	-0.0541556	-0.179252	-0.13052	0.362623	1.5708	0	0
20.17	3.10071	1.30885	-1.39962	0.664152	0.391282	1.05001	-0.301332	0.0304013	-0.1654	0.0976883	-0.480958	0	0	-0.315266	-0.15522	-0.376399	0.194295	-0.348168	0	0	-0.470637	0.117142	-0.100595	0.219699	-0.342118	1.5708	0.318407	0.133624	0	0	-0.0563392	-0.179321	-0.124062	0.371454	1.5708	0	0
20.18	3.10061	1.31297	-1.39807	0.664568	0.391054	1.04978	-0.293931	0.029996	-0.164929	0.103609	-0.477201	0	0	-0.308927	-0.156086	-0.376384	0.19709	-0.34735	0	0	-0.470711	0.120898	-0.100224	0.224915	-0.343997	1.5708	0.317929	0.133489	0	0	-0.0588877	-0.179621	-0.116209	0.380963	1.5708	0	0
20.19	3.10014	1.31741	-1.3964	0.664993	0.390724	1.04954	-0.285708	0.0294372	-0.165345	0.110052	-0.473457	0	0	-0.302082	-0.15687	-0.376467	0.200018	-0.346532	0	0	-0.470958	0.124839	-0.099781	0.230727	-0.3459	1.5708	0.3174	0.133464	0	0	-0.0619673	-0.180283	-0.106246	0.391504	1.5708	0	0
